<svg width="38" height="38" viewBox="0 0 38 38" fill="none" xmlns="http://www.w3.org/2000/svg">
<path fill-rule="evenodd" clip-rule="evenodd" d="M19.036 26.4241C23.12 26.4241 26.4509 23.0931 26.4509 19.0092C26.0717 9.18697 11.9989 9.18971 11.6211 19.0092C11.6211 23.0931 14.952 26.4241 19.036 26.4241Z" fill="#01FFFF"/>
<path d="M32.4513 5.59523C17.891 -8.51248 -5.37662 6.26391 1.15948 25.4366C1.81615 27.2644 2.74583 28.9717 3.92614 30.5188L0.855322 33.3994C0.345398 33.8778 0.0582177 34.5343 0.0467987 35.2481C0.0351573 35.9791 0.323598 36.6936 0.838342 37.2082C1.35271 37.7228 2.06833 38.0115 2.7984 37.9996C3.51231 37.9883 4.1689 37.7012 4.64724 37.1913L7.52801 34.1203C14.8038 39.8348 26.0158 39.1197 32.4512 32.4401C39.8149 25.3749 39.8153 12.6605 32.4513 5.59523ZM32.0275 30.7214C30.4291 29.2178 28.6116 28.0207 26.6077 27.1507C28.6202 25.278 29.9398 22.6701 30.1345 19.7592H36.5124C36.3364 23.9641 34.6694 27.7902 32.0275 30.7214ZM9.39776 19.0095C9.39776 13.6943 13.722 9.3701 19.0372 9.3701C31.8076 9.85473 31.8042 28.1663 19.037 28.6489C13.722 28.6489 9.39776 24.3247 9.39776 19.0095ZM7.93872 18.2762H1.54498C1.72116 14.0714 3.38819 10.2453 6.02997 7.31401C7.62826 8.81754 9.44558 10.0146 11.4492 10.8845C9.44277 12.7596 8.12899 15.3671 7.93872 18.2762ZM25.289 9.81477C24.5251 6.3646 23.7814 3.98834 22.0476 1.77907C25.4709 2.37678 28.5554 3.9727 30.9892 6.25486C29.3318 7.80844 27.4197 9.0055 25.2955 9.81907C25.2933 9.81766 25.2911 9.81618 25.289 9.81477ZM23.5523 8.84512C20.8192 7.57494 17.2333 7.5785 14.5032 8.85365C16.9054 -0.729178 21.1475 -0.73511 23.5523 8.84512ZM15.1038 3.07801C14.1317 4.74014 13.3257 7.06739 12.7672 9.821C10.6412 9.00751 8.72738 7.80977 7.06851 6.25479C9.50231 3.9727 12.5868 2.37671 16.01 1.77899C15.7085 2.13528 15.4046 2.56379 15.1038 3.07801ZM19.0372 30.1319C20.6455 30.1319 22.1752 29.7887 23.5569 29.1718C21.1519 38.7801 16.899 38.7674 14.4986 29.1633C15.8852 29.7855 17.4215 30.1319 19.0372 30.1319ZM22.955 34.9553C23.9266 33.2933 24.7322 30.9669 25.2903 28.2145C27.4164 29.028 29.3302 30.2257 30.989 31.7807C28.5553 34.0628 25.4707 35.6587 22.0475 36.2565C22.3496 35.8997 22.6538 35.4705 22.955 34.9553ZM30.1357 18.2762C29.9453 15.3645 28.6293 12.7549 26.6198 10.8795C28.619 10.0099 30.4325 8.81457 32.0276 7.31401C34.6694 10.2453 36.3364 14.0713 36.5126 18.2762H30.1357V18.2762ZM1.54535 19.7592H7.93984C8.10749 22.2658 9.10917 24.5476 10.6691 26.3288L9.6116 27.3864L8.98386 26.7586C8.70076 26.4756 8.24414 26.4682 7.95222 26.7421L5.01406 29.4983C2.91059 26.686 1.69573 23.2734 1.54535 19.7592ZM3.56562 36.1767C3.36446 36.3911 3.08358 36.5119 2.77475 36.5169C2.44278 36.5225 2.11934 36.392 1.88703 36.1597C1.65465 35.9273 1.52437 35.6036 1.52963 35.2718C1.5346 34.9632 1.65547 34.6823 1.86998 34.481L8.44309 28.3151L9.73158 29.6036L3.56562 36.1767ZM11.3046 30.0944C11.5784 29.8024 11.5711 29.3458 11.2881 29.0628L10.6604 28.4351L11.7179 27.3775C12.0492 27.6677 12.3978 27.9385 12.762 28.1883C13.5252 31.6499 14.2691 34.0349 16.0068 36.2526C13.3125 35.7786 10.7474 34.6774 8.54845 33.0326L11.3046 30.0944Z" fill="#0E1124"/>
<path d="M21.2612 15.1561C20.9067 14.9514 20.4532 15.0729 20.2484 15.4275L16.5409 21.849C16.3361 22.2037 16.4576 22.6572 16.8123 22.8619C17.1606 23.0648 17.6192 22.9484 17.8252 22.5905L21.5326 16.169C21.7374 15.8143 21.6159 15.3608 21.2612 15.1561Z" fill="#06063F"/>
<path d="M17.1824 16.5406C18.1651 16.5041 18.1644 15.0937 17.1824 15.0576H17.1819C16.199 15.0942 16.2004 16.5046 17.1824 16.5406Z" fill="#06063F"/>
<path d="M20.8902 21.4785H20.8897C20.4802 21.4785 20.1484 21.8105 20.1484 22.22C20.1848 23.2024 21.5955 23.2023 21.6316 22.22C21.6317 21.8105 21.2998 21.4785 20.8902 21.4785Z" fill="#06063F"/>
</svg>
