<svg width="60" height="61" viewBox="0 0 60 61" fill="none" xmlns="http://www.w3.org/2000/svg">
<g clip-path="url(#clip0_1308_11614)">
<path fill-rule="evenodd" clip-rule="evenodd" d="M9.04687 20.9276H50.9542C50.9924 20.1316 51.0211 19.3408 51.0421 18.5578C45.1272 16.9056 40.47 12.2363 38.835 6.31445H21.166C19.5309 12.2363 14.8737 16.9056 8.95898 18.5578C8.97996 19.3406 9.00867 20.1315 9.04687 20.9276Z" fill="#06BCD4"/>
<path fill-rule="evenodd" clip-rule="evenodd" d="M47.6774 38.6211H12.3223C12.9795 40.2788 13.7604 41.8627 14.6872 43.342C18.3075 49.1204 23.6368 52.4881 29.9999 54.406C36.3629 52.4881 41.6923 49.1204 45.3126 43.342C46.2394 41.8628 47.0202 40.2789 47.6774 38.6211Z" fill="#06BCD4"/>
<path d="M24.1405 24.502H20.0394C18.4863 24.5596 18.4875 26.7883 20.0394 26.8455H20.9182V33.876C20.9758 35.429 23.2045 35.4279 23.2617 33.876V26.8455H24.1405C25.6936 26.7878 25.6924 24.5591 24.1405 24.502Z" fill="#0E1124"/>
<path d="M29.9118 24.502C27.9734 24.502 26.3965 26.0789 26.3965 28.0173V33.8761C26.4541 35.4292 28.6828 35.428 28.74 33.8761V32.1183H31.0836V33.8761C31.1412 35.4292 33.3699 35.428 33.4271 33.8761V28.0173C33.4271 26.0789 31.8501 24.502 29.9118 24.502ZM31.0836 29.7748H28.74V28.0173C28.7992 26.4645 31.025 26.4657 31.0836 28.0173V29.7748Z" fill="#0E1124"/>
<path d="M40.4848 24.626C39.906 24.3365 39.2022 24.571 38.9128 25.1501L37.9102 27.1551L36.9076 25.1501C36.6182 24.5712 35.914 24.3365 35.3356 24.626C34.7568 24.9154 34.5222 25.6193 34.8115 26.198L36.6001 29.7752L34.8115 33.3524C34.522 33.9311 34.7566 34.635 35.3356 34.9244C35.902 35.2112 36.6172 34.985 36.9076 34.4003L37.9102 32.3953L38.9128 34.4003C39.2031 34.985 39.9185 35.2112 40.4848 34.9244C41.0637 34.635 41.2983 33.9311 41.009 33.3524L39.2204 29.7752L41.009 26.198C41.2983 25.6192 41.0637 24.9154 40.4848 24.626Z" fill="#0E1124"/>
<path d="M55.6671 29.7748L59.8697 21.5181C60.2771 20.7743 59.673 19.7892 58.8255 19.8148H56.8597C56.9207 18.1537 56.9506 16.4092 56.9506 14.5173C56.9506 14.2065 56.8271 13.9085 56.6074 13.6887C56.3876 13.469 56.0896 13.3455 55.7789 13.3455C49.3176 13.3455 44.0612 8.08907 44.0612 1.62782C44.0612 0.980772 43.5365 0.456055 42.8894 0.456055H17.1105C16.4635 0.456055 15.9388 0.980772 15.9388 1.62782C15.9388 8.08907 10.6823 13.3455 4.2212 13.3455C3.57415 13.3455 3.04943 13.8702 3.04943 14.5173C3.04943 16.4103 3.07931 18.1548 3.14025 19.8148H1.17449C0.326833 19.7892 -0.277213 20.7744 0.13021 21.5181L4.33299 29.7748L0.13021 38.0316C-0.277213 38.7754 0.32695 39.7605 1.17449 39.7349H6.47603C10.4066 50.5121 18.0099 57.2793 29.6967 60.4108C29.8953 60.4641 30.1045 60.4641 30.3032 60.4108C41.9891 57.2796 49.5919 50.5123 53.5225 39.7349H58.8255C59.6731 39.7605 60.2771 38.7753 59.8697 38.0316L55.6671 29.7748ZM5.39672 15.6404C12.2158 15.0736 17.6685 9.61916 18.234 2.79959H41.7662C42.3315 9.61916 47.7842 15.0736 54.6036 15.6404C54.5937 17.1092 54.5643 18.4893 54.5146 19.8148H5.48542C5.43574 18.4903 5.40645 17.11 5.39672 15.6404ZM30 58.0648C19.5735 55.1922 12.6815 49.1861 8.98139 39.7349H51.0169C47.3171 49.1863 40.4255 55.1925 30 58.0648ZM3.08588 37.3913L6.69211 30.3064C6.86201 29.9724 6.86201 29.5772 6.69211 29.2433L3.08588 22.1584H56.9143L53.3081 29.2433C53.1382 29.5774 53.1382 29.9724 53.3081 30.3064L56.9143 37.3913H3.08588Z" fill="#0E1124"/>
</g>
<defs>
<clipPath id="clip0_1308_11614">
<rect width="60" height="60" fill="white" transform="translate(0 0.453125)"/>
</clipPath>
</defs>
</svg>
