<svg width="60" height="61" viewBox="0 0 60 61" fill="none" xmlns="http://www.w3.org/2000/svg">
<g clip-path="url(#clip0_1308_11512)">
<path fill-rule="evenodd" clip-rule="evenodd" d="M28.1257 54.5921C46.7093 54.7669 57.1626 32.5086 45.4532 18.3434C45.3313 18.5991 45.1645 18.8387 44.9529 19.0504C43.9556 20.0478 42.3386 20.0478 41.3412 19.0504C40.3438 18.053 40.3438 16.436 41.3412 15.4387C41.5504 15.2296 41.7868 15.0643 42.0389 14.9428C27.852 3.31419 5.68429 13.7911 5.86042 32.3271C5.8603 44.6236 15.8289 54.5921 28.1257 54.5921Z" fill="#FEDE65"/>
<path d="M20.8011 21.7802H21.68C23.2332 21.7226 23.232 19.4937 21.68 19.4365H17.5785C16.0253 19.4942 16.0265 21.7231 17.5785 21.7802H18.4574V29.9832C18.5151 31.5363 20.7439 31.5352 20.8011 29.9832V21.7802Z" fill="#0E1124"/>
<path d="M30.9667 29.9828V22.9516C30.7894 18.293 24.1112 18.2965 23.9355 22.9516V29.9828C23.9932 31.536 26.2221 31.5348 26.2793 29.9828V27.639H28.623V29.9828C28.6806 31.5359 30.9095 31.5347 30.9667 29.9828ZM28.623 25.2952H26.2793V22.9516C26.3384 21.3988 28.5644 21.4 28.623 22.9516V25.2952Z" fill="#0E1124"/>
<path d="M37.5008 31.155C37.6577 31.155 37.8171 31.1232 37.9699 31.0564C38.563 30.7969 38.8332 30.106 38.5739 29.5131L36.7285 25.2951L38.5737 21.0775C38.8332 20.4846 38.5628 19.7936 37.9699 19.5343C37.377 19.2745 36.686 19.545 36.4267 20.1382L35.4496 22.3715L34.4725 20.1382C34.2128 19.545 33.522 19.275 32.9291 19.5342C32.336 19.7936 32.0658 20.4846 32.3251 21.0775L34.1704 25.2954L32.3251 29.5132C32.0657 30.1061 32.336 30.7971 32.929 31.0564C33.5075 31.314 34.2125 31.0516 34.4722 30.4525L35.4494 28.2191L36.4265 30.4525C36.6192 30.8926 37.0494 31.155 37.5008 31.155Z" fill="#0E1124"/>
<path d="M34.2773 35.8427C35.8305 35.7851 35.8293 33.5562 34.2773 33.499H30.1758C29.5287 33.499 29.0039 34.0238 29.0039 34.6709V44.0458C29.0039 44.6929 29.5287 45.2176 30.1758 45.2176H34.2773C35.8305 45.16 35.8293 42.9311 34.2773 42.8739H31.3476V40.5302H33.0615C34.6147 40.4725 34.6135 38.2437 33.0615 38.1865H31.3476V35.8427H34.2773Z" fill="#0E1124"/>
<path d="M25.998 40.1003C29.1505 38.3702 27.9619 33.5262 24.3164 33.498H21.9726C21.3255 33.498 20.8008 34.0228 20.8008 34.6699V44.045C20.8584 45.5982 23.0873 45.597 23.1445 44.045V40.5292H23.5922L25.612 44.5691C25.9025 45.1538 26.6177 45.3799 27.1841 45.0933C27.763 44.8038 27.9976 44.0999 27.7083 43.5211L25.998 40.1003ZM23.1446 35.8419H24.3165C25.8608 35.8998 25.8721 38.1097 24.3309 38.1854C24.3177 38.1853 24.3043 38.1853 24.2911 38.1856H23.1446V35.8419Z" fill="#0E1124"/>
<path d="M18.457 33.499H14.3555C13.7084 33.499 13.1836 34.0238 13.1836 34.6709V44.0458C13.2412 45.599 15.4701 45.5978 15.5273 44.0458V40.5302H17.2412C18.7943 40.4725 18.7932 38.2437 17.2412 38.1865H15.5273V35.8427H18.457C20.01 35.785 20.0089 33.5561 18.457 33.499Z" fill="#0E1124"/>
<path d="M41.8945 35.8427C43.4477 35.7851 43.4465 33.5562 41.8945 33.499H37.793C37.1459 33.499 36.6211 34.0238 36.6211 34.6709V44.0458C36.6211 44.6929 37.1459 45.2176 37.793 45.2176H41.8945C43.4477 45.16 43.4465 42.9311 41.8945 42.8739H38.9648V40.5302H40.6787C42.2318 40.4725 42.2307 38.2437 40.6787 38.1865H38.9648V35.8427H41.8945Z" fill="#0E1124"/>
<path d="M59.3909 6.92709C60.3173 4.55934 60.1829 2.61089 59.0125 1.44043C57.8421 0.270094 55.8935 0.135447 53.5259 1.06204C51.4712 1.86593 49.2447 3.40365 47.2564 5.39195C46.0412 6.60705 44.9876 7.91942 44.1659 9.23612C25.9997 -3.73427 -0.215458 9.83295 0.001336 32.3274C0.00121881 47.835 12.6178 60.4517 28.1258 60.4517C50.6186 60.6656 64.1877 34.4557 51.2181 16.2891C52.5116 15.4818 53.8232 14.4344 55.061 13.1965C57.0493 11.2081 58.587 8.98159 59.3909 6.92709ZM53.9067 32.3271C52.6106 66.4814 3.63622 66.4733 2.34494 32.3267C2.34213 8.49 32.2997 -2.41242 47.6146 15.4674C47.2427 15.5962 46.8877 15.6883 46.5556 15.7404C46.3752 15.33 46.1171 14.9459 45.7816 14.6103C44.329 13.1576 41.9653 13.1576 40.5126 14.6103C39.0599 16.0629 39.0599 18.4266 40.5126 19.8793C41.9652 21.332 44.3289 21.332 45.7816 19.8793C46.2959 19.365 46.6281 18.7364 46.7782 18.0745C47.5141 17.972 48.3059 17.7389 49.1274 17.3898C52.1356 21.6068 53.9067 26.7639 53.9067 32.3271ZM44.1244 18.222C43.5855 18.7608 42.7088 18.7608 42.1699 18.222C41.631 17.6831 41.631 16.8063 42.1699 16.2675C42.7088 15.7286 43.5854 15.7286 44.1244 16.2675C44.6633 16.8063 44.6633 17.6833 44.1244 18.222ZM49.7914 14.4127C48.6612 13.0482 47.4049 11.7918 46.0404 10.6617C46.7817 9.43522 47.7641 8.19867 48.9137 7.04919C50.6784 5.28437 52.6195 3.93322 54.3798 3.24451C55.764 2.70288 56.9042 2.64651 57.3553 3.09768C59.0064 5.32902 53.8605 12.1541 49.7914 14.4127Z" fill="#0E1124"/>
</g>
<defs>
<clipPath id="clip0_1308_11512">
<rect width="60" height="60" fill="white" transform="translate(0 0.453125)"/>
</clipPath>
</defs>
</svg>
