<svg width="60" height="61" viewBox="0 0 60 61" fill="none" xmlns="http://www.w3.org/2000/svg">
<path d="M58.8281 51.6639H57.6561V14.1641C57.6561 12.2255 56.079 10.6484 54.1405 10.6484H45.2343C43.6811 10.7061 43.6823 12.935 45.2343 12.9922H54.1405C54.7867 12.9922 55.3124 13.5179 55.3124 14.1641V51.6639H37.0312C36.3841 51.6639 35.8593 52.1886 35.8593 52.8357H24.1406C24.1406 52.1886 23.6158 51.6639 22.9687 51.6639H4.68749V14.1641C4.68749 13.5179 5.21319 12.9922 5.85936 12.9922H14.7656C16.3188 12.9345 16.3176 10.7056 14.7656 10.6484H5.85936C3.92085 10.6484 2.34375 12.2255 2.34375 14.1641V51.6639H1.17187C0.524765 51.6639 0 52.1886 0 52.8357V56.3514C0 58.2899 1.57699 59.867 3.5155 59.867H56.4844C58.4229 59.867 60 58.2899 60 56.3514V52.8357C60 52.1886 59.4752 51.6639 58.8281 51.6639ZM57.6563 56.3514C57.6563 56.9975 57.1306 57.5232 56.4844 57.5232H3.5155C2.86933 57.5232 2.34375 56.9975 2.34375 56.3514V54.0076H22.1114C22.5173 54.7077 23.2749 55.1795 24.1406 55.1795H35.8593C36.7251 55.1795 37.4827 54.7077 37.8885 54.0076H57.6563V56.3514Z" fill="#0E1124"/>
<path fill-rule="evenodd" clip-rule="evenodd" d="M13.5938 3.38281V48.1484H46.4064V3.38281L43.1251 1.03906L39.8439 3.38281L36.5626 1.03906L33.2812 3.38281L30.0001 1.03906L26.7188 3.38281L23.4375 1.03906L20.1562 3.38281L16.875 1.03906L13.5938 3.38281Z" fill="#01FFFF"/>
<path d="M55.7529 46.9766H4.24845C2.69524 47.0342 2.69642 49.2631 4.24845 49.3203H55.7529C57.3061 49.2627 57.305 47.0338 55.7529 46.9766Z" fill="#0E1124"/>
<path d="M27.5039 18.8519C28.151 18.8519 28.6758 18.3272 28.6758 17.6801V15.9221H31.0195V17.6801C31.0772 19.2333 33.3061 19.2321 33.3633 17.6801V11.8208C33.186 7.16214 26.5077 7.16565 26.332 11.8208V17.6801C26.332 18.3273 26.8567 18.8519 27.5039 18.8519ZM28.6758 11.8208C28.735 10.268 30.9609 10.2691 31.0195 11.8208V13.5784H28.6758V11.8208Z" fill="#0E1124"/>
<path d="M35.402 18.7281C35.9684 19.0148 36.6836 18.7888 36.9743 18.2041L37.9769 16.1989L38.9796 18.2041C39.7268 19.5712 41.7214 18.5611 41.0759 17.1558L39.2872 13.5784L41.0759 10.0011C41.3654 9.42215 41.1308 8.7182 40.5519 8.42875C39.9726 8.13918 39.269 8.37379 38.9796 8.95281L37.9769 10.958L36.9743 8.95281C36.6848 8.37402 35.9807 8.1393 35.402 8.42875C34.8232 8.7182 34.5886 9.42215 34.8779 10.0011L36.6666 13.5784L34.8779 17.1558C34.5884 17.7347 34.823 18.4387 35.402 18.7281Z" fill="#0E1124"/>
<path d="M19.973 10.6484H20.8518V17.6796C20.9094 19.2328 23.1383 19.2316 23.1955 17.6796V10.6484H24.0744C25.6276 10.5908 25.6264 8.36188 24.0744 8.30469H19.973C18.4199 8.36246 18.4211 10.5914 19.973 10.6484Z" fill="#0E1124"/>
<path d="M19.973 25.8828H40.0266C41.5798 25.8252 41.5786 23.5963 40.0266 23.5391H19.973C18.4199 23.5968 18.4211 25.8257 19.973 25.8828Z" fill="#0E1124"/>
<path d="M19.973 30.5703H40.0266C41.5798 30.5127 41.5786 28.2838 40.0266 28.2266H19.973C18.4199 28.2843 18.4211 30.5132 19.973 30.5703Z" fill="#0E1124"/>
<path d="M19.973 35.2578H29.9998C31.553 35.2002 31.5518 32.9713 29.9998 32.9141H19.973C18.4199 32.9718 18.4211 35.2007 19.973 35.2578Z" fill="#0E1124"/>
<path d="M19.973 39.9453H40.0266C41.5798 39.8877 41.5786 37.6588 40.0266 37.6016H19.973C18.4199 37.6593 18.4211 39.8882 19.973 39.9453Z" fill="#0E1124"/>
<path d="M19.973 44.6328H40.0266C41.5798 44.5752 41.5786 42.3463 40.0266 42.2891H19.973C18.4199 42.3468 18.4211 44.5757 19.973 44.6328Z" fill="#0E1124"/>
</svg>
