<svg width="38" height="38" viewBox="0 0 38 38" fill="none" xmlns="http://www.w3.org/2000/svg">
<g clip-path="url(#clip0_1308_11437)">
<path d="M28.5287 7.79007L20.956 0.217387C20.8168 0.0782266 20.6281 0 20.4312 0L0.742188 7.42188e-05C0.332277 7.42188e-05 0 0.332352 0 0.742262V34.0621C0 34.2589 0.0782266 34.4477 0.217387 34.5869C0.356547 34.7261 0.545359 34.8043 0.742188 34.8043H21.1885C22.1722 34.7678 22.1714 33.3561 21.1885 33.3199H1.48438V1.48445H19.689V8.31495C19.689 8.72486 20.0213 9.05714 20.4312 9.05714H27.2618V17.1183C27.2983 18.102 28.71 18.1012 28.7462 17.1183V8.31487C28.7461 8.11805 28.668 7.92923 28.5287 7.79007ZM21.1734 2.53398L26.2122 7.57269H21.1734V2.53398Z" fill="#0E1124"/>
<path d="M15.8869 9.0572C16.2968 9.0572 16.6291 8.72492 16.6291 8.31501V4.51367H17.2121C18.1958 4.47716 18.195 3.06544 17.2121 3.0293H14.5617C13.578 3.06581 13.5788 4.47753 14.5617 4.51367H15.1447V8.31501C15.1447 8.72492 15.477 9.0572 15.8869 9.0572Z" fill="#0E1124"/>
<path d="M12.2908 9.05729C12.7007 9.05729 13.033 8.72501 13.033 8.3151V5.28601C12.9191 2.29544 8.63227 2.29774 8.51953 5.28601V8.31503C8.55605 9.29872 9.96776 9.29798 10.0039 8.31503V7.54263H11.5486V8.31503C11.5486 8.72501 11.8809 9.05729 12.2908 9.05729ZM10.0039 6.05833V5.28601C10.0429 4.26253 11.51 4.26328 11.5486 5.28601V6.05826H10.0039V6.05833Z" fill="#0E1124"/>
<path d="M4.77156 8.54999C4.99207 9.22108 5.95943 9.22071 6.17979 8.54999L7.69437 4.00639C7.82403 3.61749 7.61384 3.19719 7.22501 3.0676C6.8361 2.93794 6.4158 3.14813 6.28622 3.53696L5.47567 5.96837L4.66521 3.53696C4.53555 3.14813 4.11539 2.93809 3.72641 3.0676C3.33758 3.19726 3.12739 3.61756 3.25705 4.00639L4.77156 8.54999Z" fill="#0E1124"/>
<path d="M24.7853 12.4004H3.96015C2.97645 12.4369 2.9772 13.8486 3.96015 13.8848H24.7853C25.7689 13.8483 25.7681 12.4365 24.7853 12.4004Z" fill="#0E1124"/>
<path d="M17.4018 15.6191H3.96015C2.97645 15.6557 2.9772 17.0674 3.96015 17.1035H17.4018C18.3855 17.067 18.3847 15.6552 17.4018 15.6191Z" fill="#0E1124"/>
<path d="M3.96015 20.3213H14.3727C15.3564 20.2848 15.3556 18.8731 14.3727 18.8369H3.96015C2.97645 18.8734 2.9772 20.2851 3.96015 20.3213Z" fill="#0E1124"/>
<path d="M17.4018 22.0557H3.96015C2.97645 22.0922 2.9772 23.5039 3.96015 23.54H17.4018C18.3855 23.5035 18.3847 22.0918 17.4018 22.0557Z" fill="#0E1124"/>
<path d="M17.4018 25.2734H3.96015C2.97645 25.31 2.9772 26.7217 3.96015 26.7578H17.4018C18.3855 26.7214 18.3847 25.3096 17.4018 25.2734Z" fill="#0E1124"/>
<path d="M17.4018 28.4922H3.96015C2.97645 28.5287 2.9772 29.9404 3.96015 29.9766H17.4018C18.3855 29.94 18.3847 28.5283 17.4018 28.4922Z" fill="#0E1124"/>
<path fill-rule="evenodd" clip-rule="evenodd" d="M21.9442 16.3613H36.4839C37.3169 16.3613 37.9985 17.0429 37.9985 17.8758V36.4859C37.9985 37.3189 37.3169 38.0004 36.4839 38.0004H21.9442C21.1112 38.0004 20.4297 37.3188 20.4297 36.4859V17.8759C20.4297 17.0429 21.1112 16.3613 21.9442 16.3613Z" fill="#01FFFF"/>
<path d="M23.4609 23.1609H34.9716C35.3815 23.1609 35.7138 22.8286 35.7138 22.4187V19.3896C35.7138 18.9797 35.3815 18.6475 34.9716 18.6475H23.4609C23.051 18.6475 22.7188 18.9797 22.7188 19.3896V22.4187C22.7188 22.8286 23.051 23.1609 23.4609 23.1609ZM24.2031 20.1318H34.2294V21.6765H24.2031V20.1318Z" fill="#06063F"/>
<path d="M24.1796 24.7061H23.4601C22.4765 24.7426 22.4772 26.1543 23.4601 26.1904H24.1796C25.1632 26.154 25.1625 24.7422 24.1796 24.7061Z" fill="#06063F"/>
<path d="M24.1796 27.8799H23.4601C22.4765 27.9164 22.4772 29.3281 23.4601 29.3643H24.1796C25.1632 29.3277 25.1625 27.916 24.1796 27.8799Z" fill="#06063F"/>
<path d="M24.1796 31.0537H23.4601C22.4765 31.0902 22.4772 32.5019 23.4601 32.5381H24.1796C25.1632 32.5016 25.1625 31.0899 24.1796 31.0537Z" fill="#06063F"/>
<path d="M24.1796 34.2285H23.4601C22.4765 34.265 22.4772 35.6767 23.4601 35.7129H24.1796C25.1632 35.6764 25.1625 34.2647 24.1796 34.2285Z" fill="#06063F"/>
<path d="M27.7772 24.7061H27.0578C26.0741 24.7426 26.0749 26.1543 27.0578 26.1904H27.7772C28.7609 26.154 28.7602 24.7422 27.7772 24.7061Z" fill="#06063F"/>
<path d="M27.7772 27.8799H27.0578C26.0741 27.9164 26.0749 29.3281 27.0578 29.3643H27.7772C28.7609 29.3277 28.7602 27.916 27.7772 27.8799Z" fill="#06063F"/>
<path d="M27.7772 31.0537H27.0578C26.0741 31.0902 26.0749 32.5019 27.0578 32.5381H27.7772C28.7609 32.5016 28.7602 31.0899 27.7772 31.0537Z" fill="#06063F"/>
<path d="M27.7772 34.2285H27.0578C26.0741 34.265 26.0749 35.6767 27.0578 35.7129H27.7772C28.7609 35.6764 28.7602 34.2647 27.7772 34.2285Z" fill="#06063F"/>
<path d="M31.3749 24.7061H30.6555C29.6718 24.7426 29.6725 26.1543 30.6555 26.1904H31.3749C32.3586 26.154 32.3578 24.7422 31.3749 24.7061Z" fill="#06063F"/>
<path d="M31.3749 27.8799H30.6555C29.6718 27.9164 29.6725 29.3281 30.6555 29.3643H31.3749C32.3586 29.3277 32.3578 27.916 31.3749 27.8799Z" fill="#06063F"/>
<path d="M30.6555 32.5381H31.3749C32.3586 32.5016 32.3578 31.0899 31.3749 31.0537H30.6555C29.6718 31.0902 29.6725 32.5019 30.6555 32.5381Z" fill="#06063F"/>
<path d="M34.972 34.2285H30.6555C29.6718 34.265 29.6725 35.6767 30.6555 35.7129H34.972C35.9556 35.6764 35.9548 34.2647 34.972 34.2285Z" fill="#06063F"/>
<path d="M34.9725 24.7061H34.2531C33.2694 24.7426 33.2702 26.1543 34.2531 26.1904H34.9725C35.9561 26.154 35.9554 24.7422 34.9725 24.7061Z" fill="#06063F"/>
<path d="M34.9725 27.8799H34.2531C33.2694 27.9164 33.2702 29.3281 34.2531 29.3643H34.9725C35.9561 29.3277 35.9554 27.916 34.9725 27.8799Z" fill="#06063F"/>
<path d="M34.9725 31.0537H34.2531C33.2694 31.0902 33.2702 32.5019 34.2531 32.5381H34.9725C35.9561 32.5016 35.9554 31.0899 34.9725 31.0537Z" fill="#06063F"/>
</g>
<defs>
<clipPath id="clip0_1308_11437">
<rect width="38" height="38" fill="white"/>
</clipPath>
</defs>
</svg>
