<svg width="60" height="61" viewBox="0 0 60 61" fill="none" xmlns="http://www.w3.org/2000/svg">
<g clip-path="url(#clip0_1308_11586)">
<path d="M48.1547 12.7532L36.1979 0.796367C35.978 0.576641 35.68 0.453125 35.3692 0.453125L4.28125 0.453242C3.63402 0.453242 3.10938 0.977891 3.10938 1.62512V54.2354C3.10938 54.8826 3.63402 55.4073 4.28125 55.4073H37.5691C39.1223 55.3496 39.1211 53.1206 37.5691 53.0635H5.45312V2.79699L34.1973 2.79688V13.5819C34.1973 14.2291 34.7221 14.7537 35.3692 14.7537H46.1542V40.1928C46.2119 41.746 48.4409 41.7448 48.498 40.1928V13.5819C48.498 13.2711 48.3745 12.973 48.1547 12.7532ZM36.5411 4.45426L44.497 12.4101H36.5411V4.45426Z" fill="#0E1124"/>
<path d="M28.1945 14.7542C28.8417 14.7542 29.3663 14.2295 29.3663 13.5823V7.58008H30.2868C31.8401 7.52242 31.8389 5.2934 30.2868 5.23633H26.102C24.5488 5.29398 24.5499 7.52301 26.102 7.58008H27.0226V13.5823C27.0226 14.2295 27.5472 14.7542 28.1945 14.7542Z" fill="#0E1124"/>
<path d="M22.5152 14.7544C23.1624 14.7544 23.6871 14.2298 23.6871 13.5826V8.79978C23.5073 4.07794 16.7386 4.08158 16.5605 8.79978V13.5826C16.6182 15.1358 18.8472 15.1346 18.9043 13.5826V12.3629H21.3433V13.5826C21.3433 14.2298 21.868 14.7544 22.5152 14.7544ZM18.9043 10.0192V8.79978C18.9658 7.18376 21.2824 7.18505 21.3433 8.79978V10.0191H18.9043V10.0192Z" fill="#0E1124"/>
<path d="M10.6432 13.9524C10.9914 15.0119 12.5189 15.0114 12.8667 13.9524L15.2582 6.77815C15.4629 6.1642 15.131 5.50057 14.517 5.29584C13.9033 5.09112 13.2393 5.42287 13.0347 6.03705L11.755 9.876L10.4753 6.03694C10.2706 5.42299 9.60693 5.09123 8.99298 5.29584C8.37904 5.50057 8.04716 6.1642 8.25189 6.77815L10.6432 13.9524Z" fill="#0E1124"/>
<path d="M42.2454 20.0332H9.36368C7.81048 20.0909 7.81165 22.3199 9.36368 22.377H42.2454C43.7986 22.3193 43.7975 20.0903 42.2454 20.0332Z" fill="#0E1124"/>
<path d="M42.2454 25.1143H9.36368C7.81048 25.1719 7.81165 27.4009 9.36368 27.458H42.2454C43.7986 27.4004 43.7975 25.1714 42.2454 25.1143Z" fill="#0E1124"/>
<path d="M9.36368 32.5391H25.8045C27.3577 32.4814 27.3565 30.2524 25.8045 30.1953H9.36368C7.81048 30.253 7.81165 32.482 9.36368 32.5391Z" fill="#0E1124"/>
<path d="M37.9892 35.2773H9.36368C7.81048 35.335 7.81165 37.564 9.36368 37.6211H37.9892C39.5424 37.5634 39.5412 35.3344 37.9892 35.2773Z" fill="#0E1124"/>
<path d="M34.0724 41.5312C34.0724 40.884 33.5477 40.3594 32.9006 40.3594H9.36368C7.81048 40.417 7.81165 42.6461 9.36368 42.7031H32.9006C33.5477 42.7031 34.0724 42.1785 34.0724 41.5312Z" fill="#0E1124"/>
<path d="M9.36368 45.4414C7.81048 45.4991 7.81165 47.7281 9.36368 47.7852H30.8928C32.446 47.7275 32.4448 45.4985 30.8928 45.4414H9.36368Z" fill="#0E1124"/>
<path fill-rule="evenodd" clip-rule="evenodd" d="M46.1304 60.4528C52.0575 60.4528 56.8916 55.6187 56.8916 49.6916C56.3411 35.4368 35.9175 35.4407 35.3691 49.6917C35.3691 55.6187 40.2032 60.4528 46.1304 60.4528Z" fill="#06BCD4"/>
<path d="M44.7858 53.5544C44.475 53.5544 44.1769 53.4309 43.9572 53.2112L41.267 50.5209C40.8094 50.0633 40.8094 49.3213 41.267 48.8636C41.7249 48.406 42.4667 48.4061 42.9244 48.8636L44.7859 50.7253L49.338 46.1732C49.7956 45.7156 50.5376 45.7157 50.9954 46.1732C51.453 46.6309 51.453 47.3729 50.9954 47.8305L45.6145 53.2113C45.3946 53.431 45.0966 53.5544 44.7858 53.5544Z" fill="#0E1124"/>
</g>
<defs>
<clipPath id="clip0_1308_11586">
<rect width="60" height="60" fill="white" transform="translate(0 0.453125)"/>
</clipPath>
</defs>
</svg>
